<?xml version="1.0" standalone="no"?>
<!DOCTYPE svg PUBLIC "-//W3C//DTD SVG 20010904//EN"
 "http://www.w3.org/TR/2001/REC-SVG-20010904/DTD/svg10.dtd">
<svg version="1.0" xmlns="http://www.w3.org/2000/svg"
 width="3000.000000pt" height="3000.000000pt" viewBox="0 0 3000.000000 3000.000000"
 preserveAspectRatio="xMidYMid meet">
<metadata>
Created by potrace 1.14, written by Peter Selinger 2001-2017
</metadata>
<g transform="translate(0.000000,3000.000000) scale(0.100000,-0.100000)"
fill="#000000" stroke="none">
<path d="M22175 22470 c-207 -22 -321 -31 -445 -36 -74 -3 -181 -12 -238 -20
-56 -7 -137 -14 -180 -14 -42 -1 -133 -8 -202 -16 -69 -8 -201 -19 -295 -23
-93 -5 -190 -14 -215 -19 -25 -6 -112 -13 -193 -17 -82 -4 -163 -11 -180 -16
-18 -6 -115 -14 -217 -19 -103 -5 -206 -16 -232 -24 -28 -8 -96 -14 -171 -15
-69 -1 -174 -8 -233 -15 -60 -8 -167 -17 -239 -21 -71 -3 -197 -12 -280 -20
-82 -8 -233 -19 -335 -25 -102 -6 -230 -15 -285 -20 -157 -15 -497 -39 -637
-45 -72 -3 -144 -12 -168 -20 -24 -8 -71 -15 -105 -15 -41 0 -78 -7 -106 -20
-24 -11 -56 -20 -70 -20 -14 0 -34 -7 -45 -15 -10 -8 -25 -15 -33 -15 -20 0
-113 -45 -168 -82 -158 -104 -194 -132 -269 -213 -46 -49 -95 -108 -109 -130
-15 -22 -39 -53 -54 -70 -16 -16 -38 -46 -50 -66 -40 -67 -41 -67 -127 22 -66
67 -182 161 -269 216 -40 25 -207 103 -221 103 -8 0 -28 6 -43 14 -15 8 -48
17 -74 20 -25 3 -56 10 -69 15 -95 35 -474 38 -813 7 -82 -8 -231 -17 -329
-21 -99 -3 -211 -12 -250 -20 -39 -7 -132 -16 -206 -19 -74 -3 -164 -11 -200
-19 -36 -8 -117 -15 -182 -16 -64 -1 -140 -6 -170 -12 -29 -5 -132 -14 -228
-19 -97 -5 -207 -15 -245 -24 -39 -8 -144 -17 -235 -20 -91 -3 -184 -10 -207
-16 -23 -5 -109 -12 -190 -14 -81 -3 -182 -10 -223 -16 -41 -6 -167 -15 -279
-20 -112 -6 -207 -12 -211 -15 -5 -3 -102 -12 -217 -20 -114 -8 -260 -19 -323
-25 -63 -6 -173 -15 -245 -20 -71 -5 -140 -12 -152 -15 -12 -3 -122 -9 -245
-14 -124 -6 -252 -17 -288 -25 -36 -8 -112 -15 -170 -16 -58 0 -134 -6 -170
-11 -36 -5 -137 -14 -225 -19 -88 -4 -191 -15 -228 -24 -39 -9 -114 -16 -175
-16 -60 0 -138 -7 -177 -16 -38 -9 -99 -19 -135 -24 -36 -4 -81 -13 -100 -20
-19 -7 -60 -21 -90 -32 -79 -28 -214 -98 -257 -133 -100 -82 -273 -270 -273
-297 0 -5 -12 -36 -27 -69 -36 -79 -56 -86 -273 -99 -74 -4 -200 -15 -280 -23
-197 -22 -471 -45 -670 -57 -91 -6 -174 -13 -185 -16 -11 -3 -114 -9 -230 -14
-115 -5 -228 -14 -250 -19 -22 -6 -107 -13 -190 -16 -82 -3 -181 -12 -220 -20
-38 -7 -151 -16 -250 -19 -100 -3 -207 -12 -240 -19 -33 -8 -120 -15 -195 -16
-74 -1 -166 -8 -205 -16 -38 -7 -146 -16 -240 -19 -93 -4 -190 -11 -215 -16
-25 -5 -110 -14 -190 -19 -80 -5 -165 -14 -190 -20 -25 -6 -88 -15 -140 -20
-91 -8 -184 -27 -280 -56 -25 -7 -59 -16 -76 -19 -60 -10 -322 -138 -405 -197
-30 -21 -70 -48 -89 -58 -19 -11 -48 -32 -65 -46 -16 -15 -67 -56 -111 -92
-96 -76 -268 -272 -348 -398 -32 -50 -75 -116 -97 -148 -21 -32 -39 -66 -39
-76 0 -9 -6 -25 -14 -36 -8 -11 -26 -56 -41 -100 -15 -44 -34 -89 -41 -100 -7
-11 -16 -38 -20 -60 -3 -22 -11 -49 -17 -60 -6 -11 -14 -49 -19 -85 -4 -36
-12 -85 -19 -110 -8 -29 -13 -161 -14 -376 -1 -182 -5 -336 -8 -342 -4 -5 1
-39 10 -76 13 -53 14 -80 6 -138 -6 -45 -6 -88 -1 -113 5 -22 6 -55 3 -73 -4
-24 -6 -1800 -1 -2197 0 -22 -1 -74 -2 -115 -1 -41 0 -127 2 -190 2 -81 -4
-159 -20 -265 -21 -144 -22 -180 -23 -905 -1 -650 0 -762 14 -805 8 -27 15
-76 15 -107 0 -31 7 -83 15 -115 13 -48 13 -71 4 -132 -6 -41 -8 -91 -5 -110
3 -20 6 -467 6 -994 l2 -957 24 -29 c22 -27 28 -28 133 -33 61 -3 148 -2 193
3 46 5 146 13 223 18 116 8 145 7 171 -5 24 -12 40 -13 75 -5 24 6 91 14 149
17 58 4 122 13 143 20 68 24 79 2 55 -103 -7 -30 -18 -53 -25 -53 -9 0 -13
-21 -13 -75 0 -78 4 -87 25 -58 11 15 14 12 20 -30 4 -25 4 -64 1 -84 -12 -65
-10 -95 8 -105 19 -11 21 -42 3 -60 -37 -37 -42 -86 -31 -295 l5 -103 -28 -12
c-38 -16 -37 -16 -26 -30 6 -7 14 -28 18 -46 5 -26 11 -32 25 -27 16 5 19 -3
25 -67 4 -40 13 -89 20 -109 7 -19 10 -48 8 -63 -3 -16 0 -59 7 -97 10 -53 11
-86 2 -147 -10 -69 -9 -87 9 -158 12 -43 24 -99 29 -124 32 -183 65 -296 94
-330 8 -8 17 -31 21 -50 19 -96 171 -260 240 -260 10 0 31 -7 48 -15 60 -27
193 -65 273 -76 84 -12 401 -5 529 11 39 5 138 16 220 25 83 8 179 20 215 26
36 6 94 15 130 20 36 5 76 16 90 23 17 10 66 14 160 15 129 2 136 3 160 26 21
20 36 25 79 25 28 0 66 7 82 16 33 17 104 119 114 164 3 16 13 34 21 41 8 6
14 19 14 28 0 10 11 28 25 41 14 13 25 31 25 41 0 25 26 42 55 35 18 -5 25
-13 25 -31 0 -14 4 -25 10 -25 10 0 81 -69 103 -100 46 -67 247 -175 376 -204
84 -18 435 -23 518 -6 26 5 122 14 213 20 147 10 275 29 302 46 5 3 4 12 -3
20 -9 11 -7 14 15 14 16 0 26 -6 26 -14 0 -20 35 -29 78 -21 21 4 82 11 137
16 55 4 141 15 191 22 93 15 182 16 203 2 16 -9 251 15 251 26 0 22 -200 40
-310 28 -52 -5 -165 -9 -250 -8 -123 1 -161 -1 -185 -14 -42 -21 -80 -18 -80
8 0 15 10 22 40 29 22 4 58 17 81 27 52 24 152 26 160 4 8 -19 75 -20 92 -3 9
9 58 13 165 14 145 0 183 6 173 23 -3 4 10 23 29 41 39 38 25 36 243 25 115
-6 135 -10 145 -26 6 -10 22 -19 34 -19 12 0 28 -8 35 -18 7 -11 25 -23 41
-28 47 -16 35 -29 -30 -32 -43 -2 -63 -7 -63 -16 0 -22 10 -24 53 -9 27 10 89
16 172 17 73 2 150 9 175 16 l45 14 -93 8 c-51 4 -107 14 -125 22 -17 8 -59
17 -91 19 -102 10 -101 39 2 52 64 8 53 25 -16 25 -30 0 -47 6 -59 20 -24 27
-114 28 -164 1 -73 -39 -189 -39 -189 0 0 13 7 19 23 19 50 1 334 29 355 36
16 4 22 2 22 -9 0 -17 29 -27 82 -27 46 0 58 16 24 32 -14 6 -26 15 -26 19 0
19 78 26 109 9 12 -6 64 -3 157 10 80 12 193 20 270 20 105 0 134 3 144 15 10
12 40 15 149 15 133 0 266 10 406 31 39 6 188 13 332 15 l261 5 7 -22 c7 -21
11 -21 90 -15 118 9 202 -1 208 -25 4 -16 15 -19 74 -18 59 1 64 2 36 10 -44
13 -41 26 7 39 44 12 59 28 39 41 -28 17 2 20 44 4 52 -20 132 -10 132 15 0
12 -14 14 -75 12 l-75 -3 30 17 c32 19 114 23 200 10 41 -6 48 -5 38 5 -30 31
0 38 70 17 35 -11 41 -10 53 7 11 15 25 18 68 16 30 -1 70 5 93 14 35 14 43
14 76 0 21 -9 43 -12 49 -9 11 7 71 14 258 30 41 4 101 15 132 25 73 24 76 24
84 -6 7 -29 7 -29 147 -15 132 13 159 29 50 30 -74 0 -116 13 -81 25 7 2 159
6 338 8 254 3 337 8 380 20 30 8 114 18 185 21 72 3 157 12 190 21 36 9 103
15 175 15 63 0 145 5 181 10 37 5 148 14 247 20 114 6 196 16 223 26 37 13 75
14 229 9 167 -5 183 -4 160 9 -14 9 -23 15 -20 16 3 0 112 3 242 6 l238 6 10
-28 11 -27 87 8 c148 13 143 13 162 -20 15 -28 21 -30 66 -28 27 1 79 2 117 2
67 0 80 8 52 31 -10 8 -32 10 -67 6 -40 -5 -58 -3 -73 8 -26 21 -10 32 60 41
53 6 85 1 195 -35 36 -12 81 -26 102 -32 85 -25 162 -4 83 22 -20 7 -33 15
-30 18 4 4 47 10 96 13 49 4 93 9 96 13 13 13 -10 20 -95 26 -48 3 -97 12
-109 18 -12 7 -33 12 -47 12 -14 0 -28 5 -31 10 -3 6 3 10 15 10 12 0 31 6 43
12 23 13 89 20 333 36 78 5 147 13 154 17 8 5 115 12 239 16 154 5 244 13 281
23 33 10 94 16 158 16 57 0 156 7 220 15 64 8 178 17 252 19 79 3 158 11 190
20 33 10 97 16 165 17 60 0 137 5 170 10 33 6 146 14 252 19 105 4 216 13 245
19 29 6 134 15 232 21 99 6 183 13 188 16 5 4 60 10 121 16 62 5 157 13 212
19 55 5 187 16 293 23 107 8 201 18 210 21 9 4 110 11 224 15 113 5 255 16
314 25 59 10 128 15 153 12 25 -3 71 -1 101 5 43 7 65 6 98 -5 23 -8 42 -11
42 -6 0 5 -4 9 -10 9 -5 0 -10 4 -10 10 0 13 69 31 95 24 29 -7 135 13 264 52
20 6 22 4 17 -13 -6 -19 15 -53 32 -53 4 0 12 -10 17 -22 14 -31 58 -35 85 -8
20 20 22 20 50 4 24 -15 31 -15 44 -5 9 8 16 20 16 28 0 8 15 20 34 28 19 8
37 19 41 25 4 6 84 9 213 7 195 -2 210 -1 267 21 46 18 79 23 140 23 83 -1
123 11 96 28 -8 5 -11 16 -7 26 6 16 20 17 144 11 172 -8 621 16 802 43 36 6
160 15 275 21 116 6 239 16 275 21 36 6 128 14 205 19 77 4 151 12 165 18 14
5 100 13 190 17 91 4 194 13 230 21 36 8 135 17 220 20 85 2 182 9 215 14 34
5 133 11 220 12 109 1 166 6 180 15 20 12 110 21 643 60 224 16 235 16 267 -1
19 -10 39 -15 46 -10 9 5 5 10 -12 16 -23 9 -23 10 -5 20 11 6 67 12 126 14
58 2 139 10 179 19 40 8 93 15 119 15 30 0 58 7 77 20 17 11 40 20 51 20 12 0
41 9 65 20 52 23 99 26 99 6 0 -8 10 -16 23 -18 14 -2 22 -10 22 -23 0 -28
-35 -33 -42 -6 -6 24 -25 27 -42 7 -6 -7 -34 -16 -61 -20 -58 -8 -67 -17 -40
-41 17 -16 25 -17 59 -7 21 7 48 12 60 12 19 0 22 -5 19 -32 -3 -34 -19 -42
-110 -55 -41 -5 -46 -14 -24 -32 32 -27 195 20 197 57 1 9 0 29 -1 45 -1 26 0
27 52 27 29 0 62 6 73 14 11 7 40 17 64 21 52 9 105 52 96 78 -10 24 -22 21
-62 -13 -18 -16 -43 -30 -54 -30 -12 0 -23 -8 -26 -20 -6 -22 -11 -24 -32 -11
-12 8 -9 15 15 38 16 16 37 32 47 36 24 9 21 24 -7 31 -25 6 -43 45 -23 50 59
16 97 30 97 35 0 4 25 24 56 46 31 22 68 49 83 61 14 12 31 23 38 25 6 2 40
32 76 65 35 34 71 66 79 70 27 17 202 210 252 279 50 68 82 124 154 270 19 39
41 82 48 97 8 14 14 34 14 45 0 10 9 35 20 56 11 20 20 48 20 62 0 15 7 39 15
56 9 16 20 69 26 117 17 156 28 725 19 1022 -9 290 -19 391 -44 445 -8 17 -25
66 -39 110 -38 117 -56 165 -72 189 -8 11 -15 26 -15 33 0 6 -14 33 -31 58
-17 25 -35 60 -40 79 -10 37 -126 165 -242 268 -27 24 -53 53 -57 66 -5 12
-17 22 -25 22 -16 0 -60 25 -83 47 -7 7 -21 13 -30 13 -28 0 6 24 78 54 36 14
78 33 93 41 37 19 44 14 39 -29 -4 -30 -9 -37 -36 -44 -23 -7 -30 -14 -28 -28
5 -27 22 -44 43 -44 10 0 21 -9 24 -20 8 -24 45 -27 45 -4 0 9 -9 18 -20 21
-23 6 -26 35 -6 52 8 7 30 15 50 18 23 4 38 12 42 25 6 20 25 20 32 -1 2 -7
-5 -15 -17 -18 -12 -3 -21 -12 -21 -19 0 -8 -7 -14 -15 -14 -8 0 -15 -7 -15
-15 0 -8 9 -15 20 -15 11 0 20 7 20 15 0 10 10 15 29 15 17 0 32 3 34 8 8 14
-20 191 -32 206 -10 12 -9 18 8 35 12 12 21 27 21 35 0 8 9 21 19 28 11 8 25
26 32 41 7 15 16 27 20 27 4 0 10 9 14 19 3 11 14 23 25 26 10 3 21 17 24 30
3 13 17 36 30 50 14 15 27 44 31 65 4 21 13 44 21 51 8 6 14 21 14 33 0 11 9
43 19 71 53 139 51 107 50 901 0 428 -5 762 -10 794 -5 30 -14 87 -19 127 -4
40 -15 82 -24 95 -9 12 -16 33 -16 46 0 13 -7 36 -15 50 -8 15 -19 38 -25 52
-29 71 -130 224 -207 311 -93 106 -295 268 -393 317 -14 6 -33 16 -42 22 -10
5 -26 15 -35 20 -31 18 -50 25 -193 78 -162 59 -291 79 -600 93 -113 5 -218
10 -235 11 -36 4 -43 27 -15 53 27 25 25 45 -4 45 -23 0 -24 2 -13 36 6 20 17
38 24 41 7 3 13 19 13 37 0 17 8 45 17 61 9 17 20 55 24 85 4 30 15 87 23 125
43 195 48 848 8 1040 -11 55 -25 113 -31 128 -6 16 -11 43 -11 60 0 18 -7 45
-15 61 -8 15 -15 40 -15 55 0 14 -9 41 -20 59 -11 18 -20 44 -20 57 0 14 -9
42 -20 62 -11 21 -20 43 -20 50 0 16 -48 111 -60 118 -6 3 -10 15 -10 26 0 11
-8 32 -18 47 -27 41 -38 61 -73 132 -43 87 -133 210 -283 389 -74 88 -233 247
-300 300 -21 17 -49 41 -61 53 -30 30 -112 90 -144 105 -14 7 -53 31 -86 53
-33 22 -71 44 -85 50 -14 5 -32 15 -40 20 -8 6 -24 14 -35 19 -11 5 -44 23
-73 40 -29 17 -57 31 -62 31 -5 0 -47 18 -94 40 -47 22 -94 40 -106 40 -11 0
-31 6 -43 14 -12 7 -60 23 -107 36 -47 12 -116 30 -155 41 -38 10 -84 19 -101
19 -17 0 -51 7 -75 16 -63 23 -571 23 -727 0 -166 -24 -548 -52 -587 -42 -22
6 -22 7 -28 288 -8 337 -17 415 -52 491 -74 156 -295 334 -464 372 -31 7 -74
18 -96 24 -55 15 -292 21 -390 11z m-191 -1406 c3 -9 6 -1040 6 -2293 0 -1758
-3 -2280 -12 -2289 -8 -8 -50 -12 -122 -12 -60 0 -162 -7 -225 -14 -64 -8
-183 -20 -266 -25 -82 -6 -167 -16 -187 -21 -21 -6 -68 -10 -105 -8 l-68 3 -7
175 c-4 96 -8 485 -10 864 l-3 689 -26 19 c-24 18 -32 18 -125 7 -54 -6 -191
-15 -304 -19 -113 -4 -227 -12 -255 -18 -27 -6 -116 -14 -198 -18 -127 -5
-149 -9 -157 -24 -6 -10 -10 -367 -12 -894 -2 -810 -3 -878 -19 -892 -24 -21
-156 -43 -269 -44 -52 -1 -115 -5 -140 -11 -25 -6 -119 -14 -210 -19 -91 -5
-205 -17 -253 -26 -76 -14 -90 -15 -102 -3 -14 15 -20 1342 -17 3551 2 941 4
1089 17 1101 10 11 49 17 132 22 65 3 159 11 208 16 50 6 176 14 280 19 105 4
223 14 262 21 59 10 75 11 85 0 10 -9 13 -208 13 -929 0 -504 4 -923 8 -929
10 -16 293 -17 402 -3 39 5 144 14 235 20 91 5 195 17 232 25 37 8 96 15 131
15 43 0 68 5 76 14 9 10 11 250 11 937 -2 873 -1 924 16 936 10 7 34 13 53 13
19 0 73 4 120 10 47 5 175 14 284 20 109 6 208 15 220 20 12 5 83 9 158 9 116
1 138 -1 143 -15z m-3700 -277 c14 -10 19 -35 26 -117 10 -125 13 -999 4
-1023 -8 -22 -36 -21 -81 3 -21 11 -50 20 -66 20 -16 0 -37 5 -48 11 -23 12
-210 32 -314 33 -97 0 -264 -19 -278 -33 -6 -6 -29 -11 -51 -11 -24 0 -74 -15
-125 -37 -83 -35 -119 -56 -264 -150 -81 -52 -304 -273 -343 -340 -15 -26 -42
-67 -61 -91 -18 -24 -33 -53 -33 -64 0 -11 -6 -32 -14 -46 -25 -47 -56 -118
-56 -129 0 -6 -9 -39 -20 -73 -11 -34 -20 -88 -20 -119 0 -31 -7 -74 -15 -96
-20 -55 -20 -266 0 -331 8 -27 15 -69 15 -94 0 -24 10 -69 21 -100 39 -100 91
-225 100 -240 5 -8 15 -27 22 -41 16 -34 89 -129 99 -129 4 0 8 -6 8 -14 0
-22 43 -69 140 -154 97 -85 170 -141 209 -159 14 -7 33 -17 41 -22 8 -5 38
-18 65 -31 28 -12 62 -28 77 -36 14 -8 36 -14 47 -14 12 0 38 -9 58 -20 21
-11 47 -20 59 -20 12 0 39 -8 60 -17 58 -26 429 -26 492 0 23 9 52 17 64 17
12 0 59 19 105 41 69 35 85 40 98 29 14 -11 15 -73 13 -516 -2 -372 -6 -506
-15 -515 -17 -17 -145 -38 -301 -49 -90 -6 -140 -14 -155 -25 -35 -25 -285
-21 -360 5 -32 12 -82 20 -117 20 -34 0 -73 6 -88 14 -15 7 -50 16 -79 19 -29
3 -65 13 -82 21 -16 9 -45 16 -62 16 -18 0 -40 7 -50 16 -10 9 -36 18 -58 21
-22 3 -46 12 -52 19 -6 8 -18 14 -26 14 -8 0 -31 8 -51 19 -20 10 -73 36 -117
57 -44 22 -91 46 -105 55 -171 113 -220 145 -247 168 -17 14 -50 40 -73 56
-51 37 -329 318 -355 360 -26 41 -77 108 -92 120 -7 5 -17 21 -23 35 -6 14
-19 39 -30 55 -11 17 -24 40 -30 53 -17 39 -121 256 -136 284 -8 14 -14 33
-14 42 0 9 -9 34 -20 56 -11 22 -20 50 -20 62 0 13 -7 35 -14 50 -8 16 -18 49
-21 75 -4 27 -13 71 -21 98 -16 57 -45 289 -52 415 -2 50 3 131 12 195 8 61
20 155 25 210 12 113 25 188 47 258 9 27 19 70 24 95 5 26 16 70 26 97 28 82
171 368 219 440 25 37 45 69 45 72 0 3 25 35 55 70 30 36 55 71 55 78 0 8 6
18 13 22 19 12 97 108 97 119 0 6 62 70 138 144 132 128 253 228 304 250 13 6
50 28 83 49 92 60 193 119 218 127 12 4 31 13 42 20 11 8 26 14 34 14 7 0 32
9 55 19 75 35 144 61 163 61 10 0 27 7 37 15 11 8 32 15 48 15 15 0 45 9 65
20 24 13 57 20 90 20 29 0 72 6 95 14 24 8 104 17 178 21 74 4 155 12 180 17
25 6 131 13 235 17 105 4 199 8 211 9 11 1 28 -4 38 -11z m-3121 -784 c4 -291
3 -491 -2 -506 -12 -31 -41 -37 -206 -43 -137 -4 -316 -17 -475 -34 -52 -5
-167 -15 -255 -21 -446 -32 -456 -33 -471 -53 -11 -16 -14 -91 -14 -422 0
-356 2 -404 16 -419 13 -13 32 -15 107 -10 221 14 393 27 400 32 5 3 90 9 190
13 100 5 198 12 218 16 29 5 41 2 57 -14 19 -19 20 -34 21 -448 2 -338 -1
-433 -11 -446 -11 -15 -48 -20 -243 -33 -500 -34 -709 -53 -730 -69 -13 -9
-15 -72 -16 -456 0 -516 -10 -476 106 -465 39 4 92 11 119 16 27 5 96 9 155
10 58 0 131 5 161 10 30 5 132 14 225 20 94 5 208 16 255 24 67 11 306 21 378
16 9 -1 12 -99 12 -455 0 -486 2 -469 -50 -472 -67 -3 -336 -25 -425 -34 -285
-29 -428 -41 -603 -50 -106 -5 -221 -15 -255 -21 -34 -6 -136 -15 -227 -19
-91 -4 -192 -12 -225 -18 -33 -7 -127 -16 -210 -22 -82 -5 -202 -14 -265 -20
-290 -26 -345 -29 -354 -20 -12 12 -11 -11 -8 495 1 215 6 396 10 402 5 8 44
15 100 19 52 4 96 12 102 19 6 8 10 523 11 1486 0 1543 6 2239 19 2260 14 22
132 42 300 49 91 4 188 12 215 18 28 6 115 13 195 16 80 3 183 13 230 21 47 8
130 15 185 15 55 0 154 8 220 16 66 9 194 19 285 24 91 4 212 12 270 19 187
20 404 38 440 37 l35 -1 8 -482z m-2845 235 c9 -9 12 -135 12 -505 l0 -493
-22 -4 c-13 -3 -80 -7 -149 -10 -69 -3 -138 -10 -153 -16 -15 -5 -68 -10 -118
-10 -150 0 -380 -21 -405 -38 l-23 -14 0 -1768 c0 -1726 0 -1768 -19 -1791
-19 -23 -26 -24 -203 -30 -100 -4 -203 -11 -228 -17 -25 -6 -117 -13 -205 -16
-88 -3 -198 -11 -244 -17 -69 -9 -85 -9 -92 2 -5 8 -9 785 -9 1768 1 1415 -2
1757 -12 1767 -19 18 -504 1 -578 -20 -38 -11 -99 -16 -200 -16 -96 0 -164 -5
-200 -15 -36 -10 -104 -15 -196 -15 -160 0 -155 -2 -192 87 -21 49 -22 67 -22
341 0 220 3 300 14 338 8 27 18 75 21 106 6 50 13 64 47 97 33 34 47 41 96 46
31 4 85 13 120 21 35 8 114 14 177 14 62 0 149 7 192 15 43 8 112 15 153 15
41 0 134 7 205 16 72 8 204 19 295 24 91 4 185 13 210 19 25 6 149 15 275 21
127 5 248 14 270 19 22 5 114 12 205 16 91 3 190 11 220 16 30 5 125 13 210
19 85 5 196 14 245 20 185 22 286 25 303 8z m11960 -228 c39 -11 86 -20 102
-20 17 0 44 -7 59 -14 15 -8 51 -18 79 -22 29 -3 57 -13 63 -20 6 -8 19 -14
29 -14 10 0 23 -6 29 -14 7 -8 26 -18 42 -21 16 -4 31 -10 34 -15 3 -5 38 -30
78 -56 144 -95 284 -228 340 -322 17 -30 39 -64 47 -77 8 -13 32 -53 53 -89
21 -36 42 -68 47 -71 6 -3 10 -18 10 -33 0 -15 9 -40 20 -57 11 -16 20 -43 20
-58 0 -15 7 -44 17 -65 13 -29 17 -78 20 -227 3 -104 0 -215 -5 -245 -14 -77
-41 -175 -58 -207 -7 -16 -14 -37 -15 -48 0 -11 -20 -56 -44 -100 -25 -44 -50
-91 -57 -105 -7 -14 -33 -52 -59 -85 -25 -33 -51 -70 -57 -82 -7 -12 -21 -24
-31 -28 -11 -3 -28 -21 -39 -39 -28 -47 -206 -173 -346 -243 -138 -70 -139
-70 -176 -78 -19 -4 -40 -11 -46 -16 -5 -4 -57 -14 -115 -20 -253 -30 -515 -5
-641 61 -20 11 -48 20 -61 20 -14 0 -30 7 -37 15 -7 8 -18 15 -24 15 -21 1
-138 81 -221 153 -18 15 -36 27 -39 27 -8 0 -146 138 -146 146 0 2 -17 27 -37
54 -76 100 -99 136 -111 176 -7 23 -23 58 -37 78 -14 20 -28 54 -31 76 -4 22
-13 45 -20 51 -8 6 -14 28 -14 49 0 21 -9 66 -20 100 -17 53 -20 90 -20 236 0
150 3 180 20 224 11 28 20 66 20 84 0 19 7 39 15 46 8 7 15 24 15 37 0 14 15
58 34 97 18 39 44 93 56 119 13 27 47 84 76 128 30 44 54 83 54 88 0 5 11 18
24 28 13 10 72 61 131 113 108 96 117 102 222 153 32 16 69 34 83 41 14 7 45
16 69 20 24 4 55 13 70 20 14 7 56 16 93 20 37 3 82 13 100 21 52 23 246 20
336 -5z m-17064 -791 l26 -20 0 -438 c0 -405 -1 -439 -18 -454 -38 -34 -34
-34 -597 -68 -93 -5 -224 -14 -290 -19 -66 -5 -244 -19 -395 -30 -151 -12
-330 -27 -397 -35 -68 -8 -189 -15 -271 -15 -82 0 -193 -6 -248 -14 -54 -8
-169 -18 -254 -21 -85 -4 -175 -11 -200 -16 -25 -5 -135 -14 -245 -19 -120 -6
-222 -16 -255 -25 -32 -9 -95 -15 -157 -15 l-102 0 -48 41 c-64 54 -113 110
-113 130 0 9 -9 36 -20 60 -16 37 -20 66 -20 184 0 217 38 334 149 455 l66 72
140 14 c321 31 784 64 890 64 50 0 117 5 150 10 33 6 132 15 220 20 88 6 215
17 282 25 67 8 167 15 223 15 57 0 144 7 194 15 50 8 165 19 256 25 91 5 219
13 285 19 66 6 183 15 260 22 77 6 210 17 295 24 85 7 158 13 161 14 4 0 18
-8 33 -20z m-31 -2230 c14 -6 30 -22 36 -36 7 -16 11 -156 11 -437 0 -492 15
-446 -148 -457 -59 -4 -172 -12 -252 -18 -404 -31 -546 -41 -660 -46 -69 -3
-141 -10 -160 -15 -19 -6 -118 -15 -220 -20 -102 -5 -201 -13 -220 -18 -19 -6
-105 -13 -190 -16 -87 -3 -180 -12 -213 -21 -35 -9 -106 -15 -180 -16 -67 0
-149 -5 -182 -10 -33 -5 -130 -13 -215 -19 -85 -6 -198 -18 -250 -26 -118 -17
-277 -18 -317 -1 -41 16 -76 62 -96 121 -26 77 -24 508 2 586 52 152 93 208
169 230 20 6 105 15 187 20 83 5 166 12 185 15 36 6 95 10 615 44 171 12 369
26 440 31 72 6 227 15 345 20 118 6 259 17 313 25 54 8 137 15 185 15 48 0
146 7 217 15 72 9 213 20 314 25 102 6 187 12 189 15 9 9 71 5 95 -6z m19995
-1136 l2 -501 -87 -6 c-49 -3 -122 -11 -163 -17 -41 -5 -156 -14 -255 -19 -99
-5 -213 -16 -253 -24 -46 -10 -126 -16 -215 -17 -78 0 -173 -4 -212 -9 -38 -5
-155 -14 -260 -19 -276 -14 -367 -22 -396 -37 -24 -12 -27 -20 -31 -81 -3 -37
-4 -97 -3 -133 1 -36 3 -173 4 -305 1 -218 3 -242 20 -265 l19 -24 184 12
c178 11 298 20 617 43 126 9 155 8 162 -3 5 -7 9 -205 9 -440 0 -485 7 -448
-87 -448 -26 0 -66 -5 -88 -11 -22 -6 -121 -14 -220 -19 -99 -5 -205 -15 -235
-21 -30 -6 -121 -13 -203 -16 l-147 -5 -15 -29 c-13 -24 -15 -98 -15 -481 1
-271 5 -459 11 -469 18 -35 40 -37 169 -22 69 8 208 18 310 22 102 5 219 13
260 20 100 15 440 41 675 52 105 5 238 13 297 18 119 11 136 9 148 -24 14 -36
13 -874 -1 -891 -6 -8 -28 -14 -48 -14 -20 0 -52 -5 -71 -10 -19 -6 -118 -15
-219 -20 -101 -6 -189 -14 -195 -19 -6 -5 -108 -14 -227 -19 -119 -5 -224 -14
-235 -19 -10 -6 -93 -13 -184 -16 -91 -3 -201 -13 -245 -21 -44 -8 -156 -17
-249 -20 -93 -4 -188 -11 -212 -16 -24 -6 -123 -14 -221 -20 -98 -6 -196 -14
-218 -20 -22 -5 -98 -10 -170 -10 -71 -1 -163 -5 -203 -9 -39 -4 -79 -3 -87 2
-13 7 -15 278 -15 2335 0 1294 4 2333 9 2341 15 23 176 51 299 51 62 0 177 7
255 15 78 8 223 19 322 25 99 6 186 13 194 16 8 2 96 9 195 14 100 6 218 15
263 20 45 6 180 15 300 20 120 6 236 14 258 20 22 5 74 10 115 10 102 0 305
19 333 30 12 5 74 8 137 7 l115 -2 3 -502z m-3394 238 c11 -17 7 -4673 -4
-4686 -6 -7 -54 -15 -127 -19 -65 -4 -138 -11 -163 -17 -25 -6 -130 -15 -235
-19 -108 -5 -219 -15 -258 -24 -85 -20 -157 -20 -183 -2 -19 14 -19 48 -16
2343 3 2261 3 2328 22 2344 14 12 52 17 157 22 76 4 154 11 174 17 20 6 117
15 215 20 99 6 197 14 219 19 53 12 192 13 199 2z m-3169 -365 c11 -6 49 -16
85 -23 107 -20 183 -40 215 -57 17 -9 42 -16 56 -16 15 0 32 -7 39 -15 7 -8
20 -15 29 -15 9 0 30 -7 46 -16 17 -9 55 -29 85 -46 30 -16 82 -47 115 -68 33
-22 71 -45 86 -52 127 -64 476 -403 551 -536 13 -22 48 -78 78 -124 57 -85
100 -166 100 -188 0 -13 26 -63 53 -99 9 -13 17 -30 17 -39 0 -8 16 -55 35
-103 19 -49 35 -97 35 -106 0 -10 7 -31 16 -48 8 -16 19 -61 24 -100 5 -39 15
-84 22 -101 18 -41 17 -796 0 -817 -7 -8 -17 -50 -22 -93 -5 -44 -16 -92 -24
-109 -9 -16 -16 -48 -16 -70 0 -22 -6 -49 -14 -60 -7 -11 -16 -33 -20 -50 -4
-16 -13 -43 -20 -60 -47 -105 -56 -127 -56 -144 0 -10 -7 -24 -15 -31 -8 -7
-15 -17 -15 -23 0 -13 -80 -174 -113 -228 -48 -79 -117 -175 -146 -203 -17
-17 -31 -36 -31 -44 0 -21 -212 -234 -292 -293 -41 -31 -70 -61 -77 -79 -7
-22 -17 -30 -33 -30 -13 0 -34 -12 -47 -26 -13 -14 -37 -32 -53 -40 -17 -9
-43 -27 -60 -42 -29 -27 -70 -51 -118 -71 -14 -6 -32 -15 -40 -20 -30 -19
-316 -161 -324 -161 -4 0 -19 -9 -33 -20 -14 -11 -38 -20 -52 -20 -15 0 -35
-6 -46 -14 -11 -7 -47 -21 -80 -30 -33 -9 -91 -25 -130 -36 -38 -12 -104 -25
-145 -30 -41 -4 -86 -13 -100 -18 -14 -5 -75 -13 -135 -17 -61 -4 -132 -12
-160 -17 -27 -5 -122 -13 -210 -18 -89 -5 -182 -16 -210 -24 -32 -10 -90 -16
-165 -16 -63 0 -142 -5 -175 -12 -33 -6 -98 -12 -145 -12 l-85 -1 -7 430 c-4
237 -6 1274 -6 2305 1 1521 3 1879 14 1896 16 27 45 32 284 43 102 6 223 14
270 20 47 5 164 12 260 16 96 4 193 11 215 17 96 26 646 29 690 4z m-2340
-636 l0 -505 -55 -6 c-85 -10 -312 -28 -555 -44 -586 -39 -747 -54 -768 -73
-16 -14 -17 -44 -17 -403 1 -298 4 -391 14 -404 12 -16 27 -17 152 -12 76 3
155 10 174 16 19 6 98 11 175 11 126 1 192 5 392 26 89 9 80 72 75 -557 -1
-232 -5 -309 -15 -323 -10 -14 -40 -21 -138 -32 -209 -23 -476 -44 -638 -51
-131 -5 -157 -9 -173 -25 -17 -17 -18 -44 -18 -461 0 -410 1 -445 18 -459 15
-14 39 -15 182 -7 91 4 199 13 240 19 41 6 159 15 262 20 103 5 215 14 250 19
90 14 444 25 451 15 3 -5 8 -209 12 -454 7 -428 7 -446 -11 -461 -14 -12 -49
-18 -124 -23 -58 -3 -211 -15 -340 -26 -461 -38 -626 -50 -700 -51 -41 0 -100
-5 -130 -10 -30 -5 -120 -13 -200 -19 -80 -6 -192 -17 -250 -25 -58 -8 -160
-17 -226 -20 -67 -2 -133 -9 -147 -14 -14 -6 -81 -11 -149 -13 l-123 -3 3
2320 c3 2038 6 2321 19 2332 18 14 73 21 238 28 72 4 171 12 220 20 50 7 149
16 220 19 72 3 146 11 165 16 19 6 110 15 202 19 91 5 172 12 179 16 6 4 90
12 186 16 96 5 191 13 211 19 21 6 123 15 227 21 105 5 237 16 295 23 58 8
130 13 160 12 l55 -1 0 -505z m-2941 214 c14 -14 16 -72 16 -489 0 -266 -4
-484 -9 -498 -9 -23 -15 -25 -113 -30 -57 -3 -168 -11 -248 -16 -80 -6 -210
-15 -290 -21 -392 -26 -631 -51 -662 -67 l-28 -14 0 -398 c0 -354 2 -400 16
-412 19 -16 179 -14 284 2 36 6 142 14 235 19 94 4 230 15 303 24 74 9 145 13
159 10 13 -4 30 -18 36 -33 12 -27 22 -826 11 -868 -8 -29 -23 -34 -129 -44
-49 -4 -128 -13 -175 -18 -47 -6 -121 -11 -165 -11 -44 0 -152 -7 -240 -15
-88 -8 -189 -15 -225 -15 -43 0 -73 -5 -88 -16 l-22 -15 0 -423 c0 -482 -5
-453 83 -442 28 4 124 11 212 15 88 5 194 13 235 19 41 7 156 16 255 21 99 6
194 15 212 20 49 14 342 18 351 4 4 -6 9 -213 11 -460 2 -368 1 -451 -10 -460
-8 -5 -59 -13 -114 -17 -55 -4 -147 -12 -205 -16 -58 -5 -170 -14 -250 -19
-141 -10 -386 -30 -620 -52 -63 -6 -196 -15 -295 -20 -99 -4 -216 -15 -260
-23 -44 -9 -117 -15 -161 -16 -60 0 -85 -4 -94 -15 -10 -13 -50 -15 -244 -15
l-232 0 -36 38 c-53 54 -58 98 -58 518 0 324 2 363 17 375 10 9 51 15 117 17
74 3 106 8 119 19 16 15 17 115 17 1838 0 1446 3 1825 13 1833 23 19 121 33
287 42 91 4 192 13 225 19 33 6 150 15 260 21 110 5 218 14 240 20 22 5 83 10
135 10 52 0 158 7 235 16 77 8 205 19 285 24 80 4 190 13 245 20 55 6 154 15
220 19 66 5 121 9 122 10 1 0 9 -6 17 -15z m-2725 -223 c17 -11 8 -121 -14
-175 -8 -19 -15 -55 -15 -79 0 -23 -9 -60 -20 -82 -11 -22 -20 -57 -20 -80 0
-22 -7 -49 -15 -59 -8 -11 -15 -31 -15 -44 0 -13 -8 -44 -19 -70 -24 -61 -40
-120 -56 -212 -18 -97 -32 -160 -54 -240 -10 -36 -24 -87 -31 -115 -7 -27 -21
-81 -32 -120 -11 -38 -23 -90 -27 -115 -4 -25 -11 -51 -15 -59 -10 -15 -40
-130 -56 -208 -6 -29 -17 -65 -25 -80 -8 -16 -15 -43 -15 -61 0 -18 -7 -46
-15 -62 -8 -16 -19 -57 -25 -92 -6 -35 -16 -90 -24 -123 -8 -33 -22 -96 -31
-140 -9 -44 -23 -102 -30 -130 -20 -70 -44 -172 -55 -225 -4 -25 -16 -62 -24
-82 -9 -21 -16 -49 -16 -63 0 -14 -6 -38 -14 -53 -7 -15 -16 -51 -19 -81 -4
-29 -11 -59 -17 -67 -7 -7 -15 -37 -20 -66 -4 -29 -13 -66 -18 -83 -32 -90
-52 -165 -52 -197 0 -19 -9 -64 -20 -98 -11 -34 -20 -73 -20 -86 0 -13 -6 -38
-14 -56 -8 -18 -24 -71 -36 -118 -12 -47 -30 -114 -41 -150 -10 -36 -19 -72
-19 -81 0 -9 -6 -32 -14 -50 -7 -19 -17 -55 -20 -82 -4 -26 -14 -59 -22 -75
-7 -15 -14 -43 -14 -62 0 -20 -6 -44 -14 -55 -7 -11 -17 -40 -21 -65 -4 -25
-14 -57 -21 -72 -8 -15 -14 -39 -14 -53 0 -14 -15 -88 -34 -163 -19 -75 -37
-149 -41 -164 -3 -15 -15 -34 -28 -42 -20 -13 -188 -29 -574 -57 -67 -4 -149
-13 -184 -18 -34 -6 -65 -8 -69 -6 -14 9 -50 86 -50 108 -1 12 -7 33 -15 47
-8 14 -14 36 -15 50 0 14 -9 42 -20 63 -11 20 -20 47 -20 59 0 13 -9 37 -20
53 -11 17 -20 41 -20 55 0 14 -9 54 -21 90 -60 186 -89 287 -89 313 0 12 -6
31 -14 42 -7 11 -17 40 -21 65 -4 25 -13 52 -20 60 -7 8 -15 33 -18 55 -2 22
-12 63 -22 90 -35 102 -49 148 -81 275 -17 67 -77 273 -95 325 -20 60 -59 216
-59 239 0 13 -7 29 -15 36 -8 7 -15 22 -15 34 0 18 -8 45 -52 181 -5 17 -16
54 -23 83 -7 30 -18 59 -24 65 -6 6 -11 21 -11 33 0 12 -9 41 -20 65 -11 24
-20 54 -20 67 0 32 -38 102 -54 102 -22 0 -56 -49 -56 -81 0 -16 -6 -46 -14
-66 -8 -21 -24 -72 -36 -113 -11 -41 -29 -102 -39 -135 -21 -70 -42 -140 -71
-245 -12 -41 -26 -88 -32 -105 -16 -49 -36 -117 -49 -165 -6 -25 -20 -63 -30
-86 -11 -23 -19 -53 -19 -67 0 -15 -6 -44 -14 -64 -8 -21 -17 -55 -21 -75 -3
-20 -12 -50 -20 -65 -8 -15 -15 -38 -15 -49 0 -12 -7 -38 -15 -59 -9 -20 -20
-55 -24 -78 -5 -23 -14 -55 -19 -72 -41 -124 -52 -163 -52 -185 0 -14 -9 -45
-20 -69 -11 -24 -20 -58 -20 -75 0 -18 -7 -41 -15 -52 -8 -10 -15 -30 -15 -43
0 -13 -8 -42 -19 -65 -22 -48 -61 -174 -61 -196 0 -8 -13 -57 -30 -110 -43
-140 -100 -340 -109 -383 -15 -67 -25 -72 -178 -85 -76 -6 -187 -14 -248 -18
-60 -3 -153 -12 -205 -20 -52 -9 -126 -14 -164 -12 l-70 3 -24 100 c-13 55
-30 123 -37 150 -7 28 -31 118 -53 200 -21 83 -45 170 -51 195 -7 25 -17 74
-22 109 -6 36 -17 77 -25 92 -8 16 -14 40 -14 55 0 15 -8 55 -19 88 -21 68
-39 139 -52 205 -5 24 -14 50 -20 57 -6 7 -14 37 -19 66 -4 29 -12 67 -18 83
-6 17 -23 84 -37 150 -15 66 -33 143 -40 170 -28 106 -36 142 -45 203 -6 35
-17 76 -25 92 -8 16 -15 42 -15 57 0 16 -9 54 -20 86 -11 31 -20 72 -20 90 0
18 -7 42 -15 53 -8 10 -15 35 -15 54 0 19 -7 48 -16 65 -8 16 -18 50 -21 75
-3 25 -12 55 -19 67 -8 12 -14 35 -14 51 0 16 -7 53 -16 83 -9 30 -22 79 -29
109 -26 111 -86 334 -96 351 -5 10 -9 37 -9 61 0 24 -9 69 -20 101 -11 31 -20
68 -20 82 0 14 -6 38 -14 53 -7 15 -16 47 -20 71 -4 24 -13 53 -21 64 -8 12
-15 39 -15 60 0 21 -6 50 -14 65 -7 15 -16 48 -19 75 -4 26 -13 61 -22 77 -8
16 -15 44 -15 63 0 18 -8 63 -19 98 -26 89 -39 142 -56 227 -8 40 -19 82 -25
92 -5 10 -10 43 -10 72 -1 29 -7 71 -15 93 -19 52 -19 52 10 71 19 12 70 18
242 25 120 5 268 14 328 19 199 17 478 31 500 26 25 -6 49 -55 60 -122 7 -40
21 -94 50 -196 9 -32 18 -81 22 -110 3 -29 12 -63 19 -75 8 -12 14 -34 14 -48
0 -14 9 -51 20 -82 11 -32 20 -69 20 -83 0 -15 7 -35 15 -46 8 -10 15 -35 15
-54 0 -19 9 -55 20 -79 11 -24 20 -60 20 -80 1 -20 9 -54 20 -76 11 -22 19
-59 20 -83 0 -23 6 -58 14 -77 8 -19 18 -56 22 -82 3 -26 10 -55 15 -64 4 -9
15 -47 24 -85 8 -38 24 -103 36 -144 11 -41 25 -99 30 -129 5 -29 16 -63 24
-75 8 -11 15 -36 15 -56 0 -19 6 -47 14 -61 7 -14 17 -48 21 -75 4 -27 11 -54
16 -60 5 -7 13 -31 17 -55 5 -26 13 -44 21 -44 14 0 46 75 60 140 5 22 23 78
40 125 17 47 31 91 31 98 0 8 7 28 14 45 8 18 19 55 24 82 6 28 15 66 22 85 7
19 16 49 22 65 6 17 16 50 23 75 8 25 18 59 24 75 29 84 43 134 50 172 4 23
13 48 19 55 6 8 14 34 18 58 3 25 12 54 19 65 6 11 15 38 19 60 4 21 14 52 22
67 8 15 14 40 14 55 0 16 6 38 14 49 8 11 17 38 21 60 4 21 13 57 20 79 15 46
45 147 76 255 11 41 27 92 35 113 8 20 14 50 14 65 0 15 9 44 20 65 11 20 20
46 20 58 0 12 6 35 14 52 8 18 19 52 23 77 l9 45 79 13 c44 7 166 17 270 21
105 5 217 14 250 20 33 7 111 11 173 9 l114 -3 15 -40 c62 -168 103 -300 103
-331 0 -17 6 -37 14 -43 7 -6 17 -30 20 -54 8 -48 32 -128 52 -172 8 -16 17
-46 20 -65 4 -19 13 -47 20 -62 8 -15 14 -35 14 -45 1 -10 9 -36 20 -58 11
-22 19 -47 20 -55 0 -13 32 -118 95 -310 8 -25 15 -54 15 -65 0 -11 6 -30 14
-41 8 -11 18 -38 22 -60 4 -21 13 -48 20 -59 8 -11 14 -31 14 -45 1 -14 9 -43
20 -65 11 -22 19 -51 20 -66 0 -14 5 -30 11 -36 6 -6 15 -30 20 -54 5 -24 16
-57 23 -74 8 -16 19 -48 24 -70 6 -22 20 -71 32 -110 12 -38 27 -93 34 -121
24 -93 59 -125 72 -66 3 15 12 45 20 67 24 68 54 188 54 215 1 14 9 43 20 65
11 22 20 58 20 80 0 22 7 48 15 59 7 10 17 44 21 75 4 31 13 65 20 76 8 11 14
40 14 65 0 25 6 55 14 66 8 11 19 42 25 70 13 66 30 133 43 169 6 17 15 53 20
80 6 28 33 140 60 250 28 110 53 223 57 250 4 28 12 59 18 71 7 11 15 45 19
75 4 30 13 66 20 81 8 15 14 43 14 63 0 20 7 49 15 64 8 16 19 56 24 89 5 34
15 70 20 81 6 11 11 32 11 46 0 14 9 48 21 75 l21 48 86 7 c48 3 146 12 217
20 72 8 211 19 310 25 99 6 209 15 245 19 92 12 202 12 219 2z m-6069 -461
c19 -19 20 -33 20 -472 0 -249 -4 -458 -8 -464 -12 -18 -118 -34 -292 -45 -91
-5 -227 -16 -304 -24 -76 -8 -159 -15 -186 -15 -86 0 -77 189 -82 -1845 l-5
-1810 -21 -35 c-12 -20 -36 -47 -54 -60 -28 -21 -44 -25 -103 -24 -46 0 -80 6
-100 17 -16 9 -39 17 -49 17 -23 0 -125 32 -216 67 -36 14 -78 30 -95 35 -79
28 -136 62 -208 122 -64 55 -82 78 -107 133 l-30 66 0 1596 c1 1379 -1 1597
-14 1605 -9 6 -62 5 -143 -3 -70 -6 -218 -16 -328 -21 -110 -6 -222 -15 -250
-21 -27 -6 -142 -15 -255 -19 -228 -10 -234 -8 -264 53 -14 31 -16 83 -16 415
0 378 0 380 24 433 25 57 48 83 82 93 33 10 552 47 779 56 110 5 225 13 255
19 30 6 155 15 277 20 122 5 227 12 234 16 7 5 98 12 203 16 105 5 229 15 276
24 47 8 129 15 184 15 54 0 140 7 190 14 50 8 183 20 296 26 113 7 207 14 209
16 14 13 83 2 101 -16z m21492 -410 c-12 -11 -24 -20 -27 -20 -3 0 -1 9 5 20
6 11 18 20 27 20 14 0 13 -3 -5 -20z m8 -80 c0 -5 -7 -10 -15 -10 -8 0 -15 5
-15 10 0 6 7 10 15 10 8 0 15 -4 15 -10z m-677 -3767 l32 -16 -30 -10 c-16 -5
-34 -16 -38 -23 -11 -19 -57 -18 -57 1 0 10 -10 15 -27 15 -20 0 -24 3 -16 11
9 9 19 9 42 0 31 -13 76 -1 52 13 -14 9 -14 26 -1 26 6 0 25 -7 43 -17z
m-23843 -381 c0 -15 -5 -22 -12 -20 -16 6 -22 33 -13 56 5 14 7 14 15 2 6 -8
10 -25 10 -38z m17994 -188 c6 -17 42 -16 119 2 27 6 27 5 16 -19 -8 -18 -22
-26 -50 -31 -21 -3 -42 -13 -47 -21 -12 -22 -72 0 -72 26 0 10 -10 23 -21 30
-17 9 -19 13 -8 20 23 14 56 10 63 -7z m-5439 -503 c29 -6 27 -7 -33 -29 -77
-29 -127 -37 -136 -24 -6 10 35 42 69 54 25 8 61 8 100 -1z m-315 -40 c0 -11
-67 -24 -80 -16 -6 4 -8 11 -5 16 8 12 85 12 85 0z m418 -20 c3 -20 0 -22 -35
-19 -43 3 -47 17 -12 35 31 16 43 12 47 -16z m-4938 -385 c0 -20 -123 -28
-214 -15 -42 6 -73 15 -70 20 3 5 68 9 145 9 110 0 139 -3 139 -14z m32 -31
c0 -5 -5 -11 -11 -13 -6 -2 -11 4 -11 13 0 9 5 15 11 13 6 -2 11 -8 11 -13z
m-2842 -185 c-20 -13 -90 -13 -90 0 0 6 24 10 53 10 37 0 48 -3 37 -10z m-220
-25 c7 -8 27 -15 44 -15 52 0 76 -11 76 -33 0 -18 -5 -19 -47 -14 -27 3 -72
16 -102 28 -48 21 -52 24 -35 36 24 17 49 17 64 -2z m-357 -12 c86 -4 96 -7
80 -19 -26 -19 -156 -19 -173 1 -8 9 -31 15 -59 16 -36 0 -42 2 -26 9 11 5 34
7 50 4 17 -3 74 -8 128 -11z m174 1 c-3 -3 -12 -4 -19 -1 -8 3 -5 6 6 6 11 1
17 -2 13 -5z m-422 -24 c11 -17 -46 -33 -74 -20 -20 9 -22 13 -10 21 19 12 76
11 84 -1z m-1852 -17 c-7 -2 -19 -2 -25 0 -7 3 -2 5 12 5 14 0 19 -2 13 -5z
m2342 -23 c-3 -5 -15 -10 -26 -10 -10 0 -19 5 -19 10 0 6 12 10 26 10 14 0 23
-4 19 -10z m-2505 -10 c0 -5 -14 -10 -31 -10 -17 0 -28 4 -24 10 3 6 17 10 31
10 13 0 24 -4 24 -10z"/>
<path d="M23927 19183 c-4 -3 -7 -216 -7 -473 0 -349 3 -469 12 -478 20 -20
53 -13 104 23 27 19 53 35 59 35 5 0 30 16 54 35 24 19 48 35 54 35 5 0 29 16
53 35 23 19 47 35 52 35 13 0 66 33 128 78 24 17 48 32 53 32 5 0 29 15 54 34
24 19 55 37 68 41 64 19 174 115 152 135 -12 11 -182 105 -303 166 -30 16 -66
36 -79 46 -13 10 -31 18 -41 18 -9 0 -25 9 -35 20 -10 11 -52 36 -93 56 -42
19 -96 49 -121 66 -25 18 -58 40 -73 50 -27 18 -78 24 -91 11z"/>
<path d="M20115 14679 c-27 -5 -90 -12 -138 -17 -48 -5 -91 -13 -95 -18 -4 -5
-5 -577 -2 -1272 5 -1364 2 -1293 55 -1276 11 4 103 10 205 14 178 6 290 24
357 58 10 5 41 20 68 33 28 13 68 38 90 54 22 17 58 42 80 57 61 40 175 157
230 237 68 98 104 153 111 171 6 18 10 24 47 78 15 23 27 50 27 60 0 11 9 31
20 45 11 14 20 31 20 38 0 6 15 60 34 118 67 205 80 295 72 481 -5 124 -32
300 -51 330 -4 6 -13 33 -21 58 -28 98 -55 166 -79 198 -14 18 -25 36 -25 41
0 8 -61 91 -95 130 -8 10 -44 52 -80 95 -36 42 -82 87 -102 99 -21 13 -56 37
-78 53 -37 29 -66 45 -165 90 -19 9 -60 20 -90 26 -30 5 -75 14 -100 19 -53
12 -224 12 -295 0z"/>
<path d="M27790 14056 c0 -2 7 -6 15 -10 8 -3 15 -1 15 4 0 6 -7 10 -15 10 -8
0 -15 -2 -15 -4z"/>
<path d="M28062 13983 c2 -10 10 -18 18 -18 8 0 16 8 18 18 2 12 -3 17 -18 17
-15 0 -20 -5 -18 -17z"/>
<path d="M27997 13953 c-4 -3 -7 -17 -7 -30 0 -22 3 -25 33 -27 15 -1 47 -50
47 -73 0 -20 48 -65 62 -57 5 3 7 18 3 33 -22 92 -26 101 -46 101 -13 0 -24
10 -30 30 -8 21 -17 30 -33 30 -13 0 -26 -3 -29 -7z"/>
<path d="M3130 10601 c0 -8 140 -21 149 -14 9 7 -7 10 -76 16 -40 3 -73 2 -73
-2z"/>
<path d="M3390 10595 c0 -8 7 -15 15 -15 8 0 15 7 15 15 0 8 -7 15 -15 15 -8
0 -15 -7 -15 -15z"/>
<path d="M27720 10560 c-6 -11 -19 -20 -29 -20 -21 0 -49 -24 -74 -62 -10 -17
-32 -31 -57 -38 -21 -6 -41 -14 -44 -19 -8 -12 41 -51 63 -51 23 0 51 25 51
45 0 8 13 21 29 30 42 21 61 43 61 71 0 14 7 27 15 30 16 7 21 34 5 34 -5 0
-14 -9 -20 -20z"/>
<path d="M27482 10389 c2 -6 8 -10 13 -10 5 0 11 4 13 10 2 6 -4 11 -13 11 -9
0 -15 -5 -13 -11z"/>
<path d="M3397 10204 c-11 -11 -8 -82 4 -89 15 -10 21 -1 22 39 1 36 -13 62
-26 50z"/>
<path d="M26878 10173 c-31 -8 -19 -23 18 -23 24 0 34 4 32 13 -5 13 -24 17
-50 10z"/>
<path d="M26280 10130 c0 -5 14 -10 30 -10 17 0 30 5 30 10 0 6 -13 10 -30 10
-16 0 -30 -4 -30 -10z"/>
<path d="M26720 10131 c0 -12 45 -22 64 -15 29 11 16 24 -24 24 -22 0 -40 -4
-40 -9z"/>
<path d="M26078 10093 c7 -3 16 -2 19 1 4 3 -2 6 -13 5 -11 0 -14 -3 -6 -6z"/>
<path d="M26753 10073 c-32 -13 -7 -23 57 -23 69 0 92 12 48 24 -27 7 -88 7
-105 -1z"/>
<path d="M25190 10060 c0 -5 11 -10 25 -10 14 0 25 5 25 10 0 6 -11 10 -25 10
-14 0 -25 -4 -25 -10z"/>
<path d="M26210 10061 c0 -14 29 -22 56 -15 38 10 28 24 -16 24 -22 0 -40 -4
-40 -9z"/>
<path d="M25708 10053 c12 -2 30 -2 40 0 9 3 -1 5 -23 4 -22 0 -30 -2 -17 -4z"/>
<path d="M26366 10032 c-3 -3 -6 -9 -6 -14 0 -11 37 -10 44 1 6 10 -30 22 -38
13z"/>
<path d="M24830 10020 c-11 -7 -2 -10 33 -10 30 0 46 4 42 10 -8 13 -55 13
-75 0z"/>
<path d="M25950 10020 c-12 -8 -9 -10 13 -10 15 0 27 5 27 10 0 13 -20 13 -40
0z"/>
<path d="M3390 9831 c0 -11 4 -22 9 -25 11 -7 23 22 15 35 -9 16 -24 10 -24
-10z"/>
<path d="M22511 9841 c-12 -8 -9 -11 11 -16 29 -8 52 1 43 16 -8 12 -36 11
-54 0z"/>
<path d="M21717 9714 c-14 -15 -6 -34 14 -34 14 0 19 5 17 17 -3 18 -20 27
-31 17z"/>
<path d="M21677 9619 c8 -8 16 -8 30 0 16 9 14 10 -11 11 -22 0 -27 -3 -19
-11z"/>
<path d="M19890 9580 c36 -11 50 -11 50 0 0 6 -17 10 -37 9 -34 -1 -35 -2 -13
-9z"/>
<path d="M20203 9583 c9 -2 25 -2 35 0 9 3 1 5 -18 5 -19 0 -27 -2 -17 -5z"/>
<path d="M20633 9583 c9 -2 23 -2 30 0 6 3 -1 5 -18 5 -16 0 -22 -2 -12 -5z"/>
<path d="M3395 9560 c-8 -25 3 -62 16 -55 12 8 12 75 0 75 -5 0 -13 -9 -16
-20z"/>
<path d="M19608 9543 c12 -2 30 -2 40 0 9 3 -1 5 -23 4 -22 0 -30 -2 -17 -4z"/>
<path d="M18975 9480 c-4 -6 12 -10 40 -10 28 0 44 4 40 10 -3 6 -21 10 -40
10 -19 0 -37 -4 -40 -10z"/>
<path d="M20160 9480 c-11 -7 -2 -10 33 -10 30 0 46 4 42 10 -8 13 -55 13 -75
0z"/>
<path d="M18432 9474 c11 -10 94 -14 138 -5 40 8 34 9 -49 10 -52 1 -92 -2
-89 -5z"/>
<path d="M18155 9440 c-4 -6 7 -10 24 -10 17 0 31 5 31 10 0 6 -11 10 -24 10
-14 0 -28 -4 -31 -10z"/>
<path d="M3434 9426 c-6 -17 2 -36 17 -36 12 0 12 37 -1 45 -6 3 -13 -1 -16
-9z"/>
<path d="M17630 9405 c0 -11 7 -15 23 -13 12 2 22 8 22 13 0 6 -10 11 -22 13
-16 2 -23 -2 -23 -13z"/>
<path d="M17818 9412 c-24 -5 -23 -19 2 -27 23 -7 63 3 55 15 -6 10 -36 17
-57 12z"/>
<path d="M16925 9310 c-11 -5 -33 -9 -50 -10 l-30 -2 30 -9 c17 -6 53 -14 80
-19 28 -4 60 -11 73 -15 18 -6 22 -4 22 13 0 43 -10 52 -59 51 -25 0 -55 -4
-66 -9z"/>
<path d="M16337 9304 c-13 -14 6 -24 43 -24 21 0 41 4 44 9 10 15 -72 29 -87
15z"/>
<path d="M16650 9300 c-14 -4 -60 -8 -102 -9 l-78 -1 0 -41 c0 -24 4 -38 10
-34 5 3 38 11 72 16 34 6 69 16 76 22 8 7 41 17 74 22 32 6 60 15 61 20 3 13
-79 16 -113 5z"/>
<path d="M15090 9186 c-54 -10 -65 -15 -65 -31 0 -18 9 -20 97 -25 53 -3 99
-8 103 -12 13 -13 -7 -28 -46 -34 -40 -7 -55 -24 -20 -24 29 0 35 -18 15 -41
-14 -16 -15 -22 -5 -28 17 -11 214 -23 236 -15 25 10 -40 36 -80 32 -31 -3
-33 1 -24 67 1 6 -2 18 -6 28 -6 15 0 17 68 17 88 0 107 5 107 31 0 17 -8 19
-84 19 -65 0 -85 3 -90 15 -7 18 -105 18 -206 1z"/>
<path d="M16490 9188 c0 -5 19 -9 43 -10 181 -6 231 -3 221 14 -7 11 -264 7
-264 -4z"/>
<path d="M16968 9193 c-37 -6 -38 -40 -2 -53 45 -18 73 -12 80 14 11 44 -3 50
-78 39z"/>
<path d="M14620 9140 c-11 -11 -33 -26 -48 -32 l-27 -11 30 -7 c17 -4 54 -8
83 -9 73 -1 65 -19 -10 -23 -48 -2 -63 -7 -63 -18 0 -12 12 -14 60 -12 32 2
68 9 80 15 11 6 75 12 145 14 69 1 131 2 138 3 9 0 12 11 10 33 -3 27 -6 32
-27 29 -14 -1 -33 -9 -42 -18 -10 -9 -30 -14 -51 -12 -28 3 -34 8 -38 33 l-5
30 -107 3 c-97 2 -109 1 -128 -18z"/>
<path d="M15543 9123 c-49 -3 -65 -8 -73 -22 -7 -14 -6 -20 5 -25 32 -12 175
16 175 35 0 5 -4 9 -9 9 -5 0 -15 1 -23 3 -7 2 -41 1 -75 0z"/>
<path d="M16125 9110 c-3 -5 3 -10 14 -10 11 0 23 5 26 10 3 6 -3 10 -14 10
-11 0 -23 -4 -26 -10z"/>
<path d="M16460 9116 c0 -3 4 -16 9 -30 9 -23 13 -24 68 -19 32 3 91 13 132
23 l75 17 -70 6 c-78 8 -214 9 -214 3z"/>
<path d="M16013 9103 c9 -2 23 -2 30 0 6 3 -1 5 -18 5 -16 0 -22 -2 -12 -5z"/>
<path d="M15890 9070 c-22 -14 1 -32 36 -28 40 4 47 38 7 38 -15 0 -35 -5 -43
-10z"/>
<path d="M16184 9069 c-10 -16 17 -30 46 -23 31 7 34 10 25 23 -8 14 -62 14
-71 0z"/>
<path d="M14350 9063 c-8 -3 -26 -10 -40 -15 l-25 -9 25 -19 c33 -25 118 -28
127 -4 14 37 -40 65 -87 47z"/>
<path d="M13998 9034 c-44 -23 -33 -34 37 -34 71 0 82 11 35 35 -35 18 -38 18
-72 -1z"/>
<path d="M15625 9040 c4 -6 11 -8 16 -5 14 9 11 15 -7 15 -8 0 -12 -5 -9 -10z"/>
<path d="M14734 8985 c-11 -26 4 -45 35 -45 33 0 81 19 81 31 0 28 -106 40
-116 14z"/>
<path d="M12410 8940 c0 -5 7 -10 15 -10 8 0 15 5 15 10 0 6 -7 10 -15 10 -8
0 -15 -4 -15 -10z"/>
<path d="M11840 8900 c-11 -6 -12 -12 -4 -20 13 -13 68 5 59 20 -8 13 -35 13
-55 0z"/>
<path d="M12566 8901 c-10 -15 34 -23 69 -12 17 5 23 10 14 10 -9 1 -30 4 -47
7 -17 3 -32 1 -36 -5z"/>
<path d="M11736 8862 c-7 -11 52 -28 61 -18 9 8 2 13 -28 21 -15 4 -30 2 -33
-3z"/>
<path d="M10382 8753 c4 -24 83 -27 83 -3 0 11 -13 16 -43 18 -38 3 -43 1 -40
-15z"/>
<path d="M9718 8702 c-16 -10 -28 -20 -28 -23 0 -9 38 -19 72 -19 31 0 42 12
33 40 -8 24 -39 25 -77 2z"/>
<path d="M11236 8645 c-3 -9 1 -18 10 -22 17 -6 121 4 136 13 20 12 -18 24
-78 24 -47 0 -63 -4 -68 -15z"/>
<path d="M10455 8621 l-80 -6 0 -30 c0 -28 2 -30 33 -27 18 1 50 10 70 19 20
9 50 20 65 23 33 6 41 25 12 26 -11 0 -56 -2 -100 -5z"/>
<path d="M9161 8582 c-18 -6 -13 -29 7 -34 10 -3 45 -1 78 4 73 12 137 17 234
18 47 0 70 4 61 9 -13 8 -356 11 -380 3z"/>
<path d="M8770 8530 c-50 -7 -42 -13 38 -29 81 -17 92 -15 92 14 0 23 -3 25
-42 23 -24 0 -63 -4 -88 -8z"/>
</g>
</svg>
